<svg version="1.0" xmlns="http://www.w3.org/2000/svg" xmlns:xlink="http://www.w3.org/1999/xlink" width="100%" height="100%" viewBox="0 0 340.000000 250.000000" preserveAspectRatio="xMidYMid meet" color-interpolation-filters="sRGB" style="margin: auto;">   <g fill="#ff0844" class="bordersvg b-d1" transform="translate(67.82418060302734,65.84791410676848)"><path fill-opacity="0" stroke="#ff0844" stroke-width="3" d="M 98.30416870117188 23.099456787109375 A 59.15208435058594 59.15208435058594 0 1 1 98.30416870117188 95.2047119140625"></path> <g transform="translate(0,23.099456787109375)"><g><rect data-gra="graph-name-bg" stroke-width="2" class="i-icon-bg" x="0" y="0" width="196.60833740234375" height="72.10525512695312" fill-opacity="0"></rect> <!----> <!----> </g> <g transform="translate(10,3)"><g data-gra="path-name" fill-rule="" class="tp-name" fill="url(#7fe9beb0-0883-4116-aa4a-272ac4148e03)"><g transform="scale(1)"><g><path d="M23.36-10.92L8.47-10.92 15.94-25.82ZM24.83-7.95L28.52-0.61C29.42 1.23 32.92 0.05 31.69-1.99L17.45-29.98C17.12-30.6 16.55-30.88 15.94-30.88 15.32-30.88 14.66-30.6 14.38-29.98L0.09-1.84C-0.76 0.05 2.36 1.28 3.22-0.47L7.05-7.95ZM57.89-12.2L58.36-5.06 40.15-29.42C38.97-31.17 36.32-30.79 36.32-28.42L36.32-1.32C36.32 1.04 39.92 0.99 39.92-1.32L39.92-18.02 39.54-24.55 57.23-0.85C58.22 0.8 61.48 0.57 61.48-1.8L61.48-28.94C61.48-31.02 57.89-30.93 57.89-28.94ZM68.91-1.18C68.91 1.09 72.45 0.99 72.45-1.18L72.45-29.46C72.45-31.78 68.91-31.83 68.91-29.46ZM94.49-11.4L82.95-29.37C82.01-31.07 79.74-30.55 79.74-28.52L79.74-1.28C79.74 0.99 83.19 0.99 83.19-1.28L83.19-22.75 92.84-7.71C93.55-6.34 95.34-6.34 96.1-7.71L105.75-22.8 105.75-1.28C105.75 0.99 109.2 0.99 109.2-1.28L109.2-28.52C109.2-30.5 107.03-31.07 105.94-29.37ZM120.98-13.38L138.76-13.38C140.75-13.38 140.65-16.41 138.76-16.41L120.98-16.41 120.98-27.05 139.66-27.05C141.64-27.05 141.74-30.08 139.71-30.08L119.75-30.08C118.42-30.08 117.57-29.13 117.57-28.05L117.57-2.08C117.57-0.95 118.42 0 119.75 0L139.66 0C141.93 0 141.64-3.12 139.66-3.12L120.98-3.12Z" transform="translate(0.055301278829574585, 31.218799591064453)"></path></g> <!----> <!----> <!----> <!----> <!----> <!----> <g data-gra="path-name-1" fill="url(#83584f1d-bf75-4820-9154-22b3b7a0a635)" transform="translate(0,34.704010009765625)"><g transform="scale(1)"><path d="M4.35-29.61C3.55-31.64 0.09-30.41 0.85-28.28L13.15-0.43C13.76 1.09 15.89 0.8 16.46-0.38L26.86-21.76 37.22-0.38C37.93 1.09 39.77 0.99 40.44-0.43L52.83-28.28C53.54-30.79 50.13-31.59 49.37-29.61L38.83-5.2 28.52-26.3C27.76-27.62 25.73-27.62 25.21-26.25L14.94-5.2ZM71.46 0.52C79.5 0.52 86.59-5.72 86.59-15.56 86.59-23.32 80.97-29.37 73.68-30.5 72.03-30.69 70.42-30.74 68.67-30.5 61.15-29.32 56.14-22.98 56.14-15.56 56.14-5.53 62.95 0.52 71.46 0.52ZM69.14-27.34C70.47-27.52 71.84-27.52 73.26-27.34 79.08-26.39 83.1-21.52 83.1-15.42 83.1-7.47 77.85-2.74 71.46-2.74 64.79-2.74 59.68-7.66 59.68-15.42 59.68-21.85 63.42-26.44 69.14-27.34ZM96.67-26.96L106.22-26.96C111.71-26.96 114.97-23.84 115.02-19.96 115.11-16.41 112.42-13.53 106.22-13.53L96.67-13.53ZM105.84-10.55L115.4-0.19C116.96 1.42 119.56-0.66 117.76-2.46L110.1-10.74C115.92-11.73 118.52-15.18 118.52-19.96 118.52-25.49 114.36-30.13 106.17-30.13L94.97-30.13C93.93-30.13 93.22-29.46 93.22-28.47L93.22-1.32C93.22 0.8 96.67 0.8 96.67-1.37L96.67-10.55ZM145.48 0C147.89 0 147.89-3.12 145.48-3.12L127.79-3.12 127.79-28.9C127.79-31.12 124.29-31.12 124.29-28.9L124.29-1.75C124.29-0.61 124.81 0 126.09 0ZM154.18-27.05L163.26-27.05C170.35-27.05 173.9-21 173.9-15.04 173.9-9.08 170.35-3.07 163.26-3.07L154.18-3.07ZM163.26 0C172.67 0 177.35-7.52 177.35-15.04 177.35-22.56 172.67-30.08 163.26-30.08L152.95-30.08C151.77-30.08 150.77-29.18 150.77-28.09L150.77-2.03C150.77-0.95 151.77 0 152.95 0Z" transform="translate(-0.7416718006134033, 30.72176742553711)"></path></g></g></g></g> <!----></g></g></g><defs v-gra="od"><linearGradient x1="0" y1="1" x2="0" y2="0" id="7fe9beb0-0883-4116-aa4a-272ac4148e03"><stop offset="0%" stop-color="#ff0844"></stop><stop offset="100%" stop-color="#ffb199"></stop></linearGradient><filter id="42443b3f1de60f6b6fd3b6a9844b4764" filterUnits="objectBoundingBox"><feColorMatrix type="matrix" values="0 0 0 0 0.99609375  0 0 0 0 0.99609375  0 0 0 0 0.99609375  0 0 0 1 0"></feColorMatrix></filter><linearGradient x1="0" y1="1" x2="0" y2="0" id="83584f1d-bf75-4820-9154-22b3b7a0a635"><stop offset="0%" stop-color="#ff0844"></stop><stop offset="100%" stop-color="#ffb199"></stop></linearGradient><filter id="42443b3f1de60f6b6fd3b6a9844b4764" filterUnits="objectBoundingBox"><feColorMatrix type="matrix" values="0 0 0 0 0.99609375  0 0 0 0 0.99609375  0 0 0 0 0.99609375  0 0 0 1 0"></feColorMatrix></filter></defs></svg>